<svg width="156" height="51" viewBox="0 0 156 51" fill="none" xmlns="http://www.w3.org/2000/svg">
<path d="M14 23.0204V39M14 23.0204L24.5 9M14 23.0204L4 9" stroke="#0284C7" stroke-width="7" stroke-linecap="round"/>
<path d="M53.1333 41.2131C53.1333 43.4387 47.2434 45.243 39.9777 45.243C38.9729 45.243 38.7444 44.7244 35.4555 46.1351C32.1666 47.5458 29.8829 47.3332 31.5751 45.037C34.2725 41.3767 24.4361 43.7473 28.0555 41.2131C33.8111 37.1832 32.7121 36.6075 39.9777 36.6075C47.2434 36.6075 53.1333 38.9874 53.1333 41.2131Z" fill="#A5F3FC"/>
<path d="M63 40.0617C63 42.2873 48.2 45.8187 49.0222 45.243C49.8444 44.6673 36.6888 42.2873 36.6888 40.0617C36.6888 37.836 42.5788 36.0318 49.8444 36.0318C57.11 36.0318 63 37.836 63 40.0617Z" fill="#A5F3FC"/>
<path d="M52.3111 41.2131C52.3111 43.4387 37.5111 46.9701 38.3333 46.3944C39.1556 45.8187 26 43.4387 26 41.2131C26 38.9874 31.8899 37.1832 39.1556 37.1832C46.4212 37.1832 52.3111 38.9874 52.3111 41.2131Z" fill="#A5F3FC"/>
<path d="M52.7222 46.3944C53.1333 48.1215 53.5082 51 47.3778 51C41.2474 51 30.9333 49.1958 30.9333 46.9701C30.9333 44.7444 35.903 42.9402 42.0333 42.9402C46.1591 42.9402 52.6782 44.6976 51.6724 44.9703C50.6667 45.243 52.3111 44.6673 52.7222 46.3944Z" fill="#A5F3FC"/>
<path d="M32.5778 11.701C32.5778 11.1487 33.0255 10.701 33.5778 10.701H57.8889C58.4412 10.701 58.8889 11.1487 58.8889 11.701V37.6494C58.8889 37.8492 58.8306 38.0451 58.7127 38.2065C53.6361 45.1595 37.8305 45.1595 32.7539 38.2065C32.6361 38.0451 32.5778 37.8492 32.5778 37.6494V11.701Z" fill="#78350F"/>
<path d="M38 15.2911C38 11.9426 41.9975 10.4362 45.3445 10.538C45.4056 10.5398 45.4666 10.5409 45.5277 10.541C48.9008 10.5506 53 12.06 53 15.4332V32.124C53 33.4965 52.3082 34.7997 51.094 35.4397C47.1296 37.5295 44.1924 37.5148 40.0076 35.4272C38.7397 34.7947 38 33.459 38 32.042V15.2911Z" fill="#FCD34D"/>
<path d="M39.2545 12.7711C37.9467 12.5018 43 11.6132 43 12.1921C43 12.3429 43 14.417 43 17.4026C43 20.4042 42.7509 28.279 43.1255 30.1395C43.5 32 44 36.1209 44 38.5C44 41.5967 42.816 45 42.816 45L39.6661 44.6004C42.4848 21.8004 40 30 40 30C40 30 38.7669 34.7711 39.1415 27.9266C39.516 21.0822 38.88 23.1921 39.2545 17.4026C39.6291 11.6132 39.2545 12.7711 39.2545 12.7711Z" fill="#A5F3FC"/>
<path d="M58.8891 11.2767C58.8891 13.5023 52.9992 15.3066 45.7336 15.3066C38.4679 15.3066 32.578 13.5023 32.578 11.2767C32.578 9.051 38.4679 7.24675 45.7336 7.24675C52.9992 7.24675 58.8891 9.051 58.8891 11.2767Z" fill="#A5F3FC"/>
<path d="M46.6763 7.63657C47.9802 7.17698 51.0227 6.89505 51.8919 7.63657C52.7612 8.37809 51.8919 12.6589 51.8919 12.6589C49.5001 13.3187 47.8141 13.3132 45.807 12.6589C45.807 12.6589 45.3724 8.09616 46.6763 7.63657Z" fill="#FED7AA"/>
<path d="M52.2783 4.19433C51.8111 7.18011 50.8141 8.673 49.0079 8.673C47.2018 8.673 46.2047 7.18011 45.7375 4.19433C45.7375 1.20855 47.2018 0.213287 49.0079 0.213287C50.8141 0.213287 52.2783 1.20855 52.2783 4.19433Z" fill="#FED7AA"/>
<path d="M46.6841 6.72585C46.6751 5.62655 47.7177 5.22329 49.0078 5.2113C50.2979 5.19931 51.347 5.58313 51.356 6.68242C51.365 7.78171 50.3305 9.1802 49.0404 9.19219C47.7504 9.20418 46.6932 7.82514 46.6841 6.72585Z" fill="#CBCBCB"/>
<path d="M47.6402 5.87056C47.6706 5.09888 48.9018 5.47099 49.5189 5.41607C50.136 5.36116 50.4006 5.32317 50.4435 5.87056C50.4864 6.41796 49.5315 7.18167 48.9144 7.23658C48.2973 7.2915 47.6832 6.41796 47.6402 5.87056Z" fill="#F9BDBD"/>
<path d="M48.0149 3.44047C48.0149 3.7153 47.8058 3.9381 47.5477 3.9381C47.2897 3.9381 47.0805 3.7153 47.0805 3.44047C47.0805 3.16563 47.2897 2.94284 47.5477 2.94284C47.8058 2.94284 48.0149 3.16563 48.0149 3.44047Z" fill="white"/>
<path d="M50.9185 3.40531C50.9185 3.68014 50.7094 3.90294 50.4513 3.90294C50.1933 3.90294 49.9841 3.68014 49.9841 3.40531C49.9841 3.13047 50.1933 2.90768 50.4513 2.90768C50.7094 2.90768 50.9185 3.13047 50.9185 3.40531Z" fill="white"/>
<path d="M54.8904 1.00914C56.1009 -0.185525 56.039 0.516312 56.016 1.70618C55.993 2.89604 52.0253 10.2228 52.0253 10.2228L50.4095 9.22277C50.4095 9.22277 53.6799 2.20381 54.8904 1.00914Z" fill="#FED7AA"/>
<path d="M42.6856 2.31399C42.1502 -0.332568 44.0191 0.662694 44.4 1.52173C44.7809 2.38076 47.8697 10.0397 47.8697 10.0397L46.355 10.6153C46.355 10.6153 43.221 4.96055 42.6856 2.31399Z" fill="#FED7AA"/>
<path d="M70.464 26.032H72.512C76.736 26.032 79.456 25.968 82.72 25.392L83.104 28.688C79.776 29.328 76.864 29.392 72.512 29.392H70.464V26.032ZM70.432 13.424H80.864V22.896H74.592V27.568H70.464V19.792H76.736V16.752H70.432V13.424ZM81.888 18.608H87.488V22.032H81.888V18.608ZM90.496 11.216H94.528V33.488H90.496V11.216ZM84.544 11.76H88.512V32.816H84.544V11.76ZM74.592 36.944H95.296V40.336H74.592V36.944ZM74.592 31.344H78.848V39.472H74.592V31.344ZM101.886 26.48H122.718V29.808H101.886V26.48ZM98.7495 34H125.566V37.456H98.7495V34ZM101.886 13.36H122.462V16.784H106.206V27.408H101.886V13.36ZM104.894 19.888H121.79V23.184H104.894V19.888ZM139.355 14.064H143.515C143.515 23.216 141.339 30.832 130.299 36.432L128.027 33.2C137.243 28.56 139.355 22.896 139.355 14.576V14.064ZM129.851 14.064H141.883V17.424H129.851V14.064ZM139.451 21.328V24.592L128.827 25.616L128.315 21.968L139.451 21.328ZM147.099 11.184H151.387V40.816H147.099V11.184ZM150.267 22.512H155.483V26H150.267V22.512Z" fill="black"/>
</svg>
